<svg version="1.2" xmlns="http://www.w3.org/2000/svg" viewBox="0 0 60 60" width="60" height="60">
	<title>BankCardPictogram-svg</title>
	<style>
		.s0 { fill: #e94d00 } 
		.s1 { fill: #2477ab } 
	</style>
	<g id="Layer">
		<path id="Layer" class="s0" d="m14.4 27.9h33v3h-33z"/>
		<path id="Layer" class="s0" d="m15.4 34.9h19v3h-19z"/>
		<path id="Layer" fill-rule="evenodd" class="s1" d="m57 15.2v30.7c0 2.3-1.6 4.1-3.5 4.1h-42c-0.6 0-1.1-0.2-1.6-0.5q0 0 0 0c0 0-2.1-1.3-3.3-3.5q-0.3-0.4-0.3-0.6-0.3-0.8-0.3-1.6v-30.7c0-2.3 1.6-4.1 3.5-4.1h42c0.5 0 1.1 0.2 1.5 0.5q0-0.1 0.1-0.1c0 0 2 1.3 3.2 3.5 0.4 0.6 0.7 1.4 0.7 2.3zm-49.2-2.1v2.7h45.4v-2.7c0-1.1-0.8-2-1.7-2h-42c-0.9 0-1.7 0.9-1.7 2zm45.4 30.7v-19.5h-45.4v19.5c0 1.1 0.8 1.9 1.7 1.9h42c0.9 0 1.7-0.8 1.7-1.9z"/>
	</g>
</svg>