<svg version="1.2" xmlns="http://www.w3.org/2000/svg" viewBox="0 0 78 78" width="78" height="78">
	<title>BankCardPictogram-svg</title>
	<style>
		.s0 { fill: #e94d00 } 
		.s1 { fill: #2477ab } 
	</style>
	<g id="Layer">
		<path id="Layer" class="s0" d="m11.4 37.9h33v3h-33z"/>
		<path id="Layer" class="s0" d="m11.4 44.9h19v3h-19z"/>
		<path id="Layer" fill-rule="evenodd" class="s1" d="m74.2 21.4v36.6c0 2.6-2.1 4.8-4.8 4.8h-57.8c-0.8 0-1.6-0.2-2.3-0.6q0 0 0 0c0 0-2.8-1.5-4.5-4.1q-0.4-0.5-0.4-0.8-0.4-0.9-0.4-1.9v-36.6c0-2.6 2.2-4.8 4.8-4.8h57.8c0.8 0 1.5 0.2 2.2 0.5q0 0 0 0c0 0 2.8 1.5 4.5 4.1 0.6 0.8 0.9 1.8 0.9 2.8zm-67.7-2.6v3.3h62.4v-3.3c0-1.3-1-2.3-2.3-2.3h-57.8c-1.3 0-2.3 1-2.3 2.3zm62.4 36.6v-23.2h-62.4v23.2c0 1.3 1 2.3 2.3 2.3h57.8c1.3 0 2.3-1 2.3-2.3z"/>
	</g>
</svg>