<svg version="1.2" xmlns="http://www.w3.org/2000/svg" viewBox="0 0 60 60" width="60" height="60">
	<title>business-icon-svg</title>
	<style>
		.s0 { fill: #2477ab } 
		.s1 { fill: #e94d00 } 
	</style>
	<g id="business-icon">
		<g id="business-copy">
			<path id="Fill-1" fill-rule="evenodd" class="s0" d="m55.8 15.6q1.2 3.1 1.2 6.3v0.6c0 2-1.4 3.7-3.4 4.4v17.5c0 2.5-2 4.5-4.4 4.5h-23.4l-0.1-17h-12.2l0.1 17v0.1h-8.1c-0.3 0-0.5-0.2-0.5-0.4v-22.5c-1.2-0.8-2-2.1-2-3.6q0-3.7 0-3.7 0-0.2 0.1-0.3l4.6-11.9c0.1-0.4 0.5-0.6 0.9-0.6h42.8c0.4 0 0.8 0.2 0.9 0.6zm-8.3 31.4c0.9 0 1.7-0.8 1.7-1.8l-0.1-18.1c-1.5-0.1-2.9-0.8-3.7-1.9-1 1.2-2.5 1.9-4.2 1.9-1.7 0-3.2-0.7-4.1-1.9-0.9 1.2-2.4 1.9-4.2 1.9-1.7 0-3.2-0.7-4.1-1.9-0.9 1.2-2.4 1.9-4.1 1.9-1.7 0-3.2-0.7-4.2-1.9-0.9 1.2-2.4 1.9-4.1 1.9-1.7 0-3.2-0.7-4.2-1.9-0.9 1.2-2.4 1.9-4.1 1.9q-0.6 0-1.2-0.1l0.1 20.1 4.6-0.1v-17l16-0.1 0.1 17.1zm-42.6-24.5c0 1.5 1.5 2.7 3.2 2.7 1.8 0 3.2-1.2 3.2-2.7v-2.7h-6.4zm8.3-2.7v2.7c0 1.5 1.4 2.7 3.2 2.7 1.8 0 3.2-1.2 3.2-2.7v-2.7zm8.3 0v2.7c0 1.5 1.4 2.7 3.2 2.7 1.7 0 3.1-1.2 3.1-2.7v-2.7zm8.3 0v2.7c0 1.5 1.4 2.7 3.2 2.7 1.8 0 3.2-1.2 3.2-2.7v-2.7zm8.3 0v2.7c0 1.5 1.4 2.7 3.2 2.7 1.7 0 3.1-1.2 3.1-2.7v-2.7zm-32.6-1.9h46.9l-3.9-10h-39.2zm47.4 1.9h-6.4v2.7c0 1.5 1.4 2.7 3.2 2.7 1.7 0 3.2-1.2 3.2-2.7z"/>
			<path id="Fill-4" fill-rule="evenodd" class="s0" d="m32 30h14v11h-14zm1.9 9.2h10.2v-7.4h-10.2z"/>
			<path id="Fill-6" class="s1" d="m13 32l10 4.7v17.3l-10-4.6z"/>
		</g>
	</g>
</svg>