<svg version="1.2" xmlns="http://www.w3.org/2000/svg" viewBox="0 0 78 78" width="78" height="78">
	<title>CarPictogram-svg</title>
	<style>
		.s0 { fill: #2477ab } 
		.s1 { fill: #e94d00 } 
	</style>
	<g id="Layer">
		<path id="Layer" fill-rule="evenodd" class="s0" d="m74.7 33.4l-0.5 1.3c-0.2 0.5-0.7 0.8-1.2 0.8h-6.1c-0.8 3.2-3.6 5.5-7 5.5-3.2 0-7.3-2.1-8.7-5-0.1-0.2-0.2-0.3-0.3-0.5h-25.1c-0.8 3.2-3.6 5.5-7 5.5-3 0-6.6-1.8-8.3-4.4-0.3-0.3-0.5-0.7-0.7-1.1h-3.2c-0.4 0-1.8-0.2-2.7-0.6-0.4-0.2-0.9-0.5-0.9-1.2v-7.1c0-2.4 0.9-4.8 2.3-6.5 1.6-1.9 3.6-2.7 4.4-3 0.6-0.2 2.7-0.6 6.3-1.3 1.3-0.3 2.5-0.8 3.5-1.6 1.6-1.3 4.1-3.1 7-4.7 6.9-3.9 10.7-5.5 18.4-5.5 2.6 0 5.6-0.1 8.9 0.2 2.1 0.2 4.2 0.6 6.2 1.3 7.4 2.2 13.8 8.6 15.2 14.2 1 4.6 0.9 9.5-0.5 13.7zm-16.5 3.7c2.6 0 4.7-2.1 4.7-4.7 0-2.6-2.1-4.7-4.7-4.7-2.6 0-4.7 2.1-4.7 4.7 0 2.6 2.1 4.7 4.7 4.7zm-42 0c2.6 0 4.7-2.1 4.7-4.7 0-1.7-0.9-6-2.3-6.8 2.8 0.9 4.9 3.6 4.9 6.8v0.1h27.5v-0.1c0-4 3.2-7.2 7.2-7.2 4 0 7.2 3.2 7.2 7.2v0.1h5.2c0 0 0.1-0.3 0.2-0.3 1.3-3.3 1.6-9 0.7-12.4-2-7.5-8.2-12.2-16.9-13.1-3.1-0.3-8.5-0.2-8.6-0.2-7.1-0.2-11.7 1.5-18.1 5.1-2.7 1.6-5.1 3.3-6.6 4.5-1.3 1.1-2.9 1.8-4.5 2.1-3.4 0.6-5.4 1-6.2 1.3-3 1.1-5 4-5 7.2v5.8h3.5v-0.1c0-4 3.2-7.2 7.2-7.2 0.8 0 1.6 2.9 2.3 3.1-0.7-0.4-1.5-0.6-2.4-0.6-2.6 0-4.7 2.1-4.7 4.7 0 2.6 2.2 4.7 4.7 4.7z"/>
		<path id="Layer" fill-rule="evenodd" class="s1" d="m45.8 9.5l0.5 7.9-22.7 1.6c-0.3 0-1.1-0.2 0-1l0.5-0.4c1.4-1 3.3-2.3 5.5-3.5 5.9-3.2 10-4.7 16.2-4.6zm8 0.2c5.5 0.5 9.9 2.7 12.6 6.3l-17.1 1.2-0.5-7.7c2.6 0 4.3 0.1 5 0.2z"/>
	</g>
</svg>