<svg width="180" height="124" viewBox="0 0 180 124" fill="none" xmlns="http://www.w3.org/2000/svg">
<g opacity="0.25" clip-path="url(#clip0_3_498)">
<path fill-rule="evenodd" clip-rule="evenodd" d="M36.8814 17.3575C37.6082 16.3899 38.8089 15.9083 39.9962 16.1081L161.002 36.4779C162.189 36.6778 163.166 37.5259 163.536 38.6782C163.906 39.8305 163.608 41.0954 162.762 41.9598L108.106 97.8226L98.5647 154.501C98.3703 155.655 97.5738 156.617 96.4798 157.018C95.3857 157.418 94.1631 157.197 93.2793 156.437L64.6727 131.847C63.8111 131.106 63.3998 129.964 63.5893 128.839L69.8933 91.39L36.5386 20.7118C36.0225 19.6182 36.1546 18.3252 36.8814 17.3575ZM45.0333 23.5475L76.1658 89.5171C76.4498 90.1189 76.5428 90.7943 76.4321 91.4519L70.2635 128.096L93.1488 147.768L101.907 95.7403C102.018 95.0827 102.327 94.4749 102.792 93.9993L153.807 41.8581L45.0333 23.5475Z" fill="white"/>
</g>
<defs>
<clipPath id="clip0_3_498">
<rect width="155" height="156" fill="white" transform="translate(26.2324 0.608276) rotate(9.55541)"/>
</clipPath>
</defs>
</svg>
