<svg version="1.2" xmlns="http://www.w3.org/2000/svg" viewBox="0 0 562 1141" width="562" height="1141">
	<title>iphone-12-pro-max--pacific-blue@2x-svg</title>
	<defs>
		<clipPath clipPathUnits="userSpaceOnUse" id="cp1">
			<path d="m3.55 136.21c0-47.68 0-71.52 9.28-89.73 8.16-16.02 21.18-29.04 37.2-37.2 18.21-9.28 42.05-9.28 89.73-9.28h281.64c47.68 0 71.52 0 89.73 9.28 16.02 8.16 29.05 21.18 37.21 37.2 9.28 18.21 9.28 42.05 9.28 89.73v868.35c0 47.68 0 71.52-9.28 89.73-8.16 16.02-21.19 29.04-37.21 37.2-18.21 9.28-42.05 9.28-89.73 9.28h-281.64c-47.68 0-71.52 0-89.73-9.28-16.02-8.16-29.04-21.18-37.2-37.2-9.28-18.21-9.28-42.05-9.28-89.73z"/>
		</clipPath>
		<linearGradient id="g1" x1="0" y1="130.2" x2="12.1" y2="130.2" gradientUnits="userSpaceOnUse">
			<stop offset=".1" stop-color="#d1d1d1"/>
			<stop offset=".3" stop-color="#e3e3e3"/>
			<stop offset=".6" stop-color="#d2d2d2"/>
			<stop offset=".8" stop-color="#e6e6e6"/>
		</linearGradient>
		<linearGradient id="g2" x1="0" y1="1011.3" x2="12.1" y2="1011.3" gradientUnits="userSpaceOnUse">
			<stop offset=".1" stop-color="#d1d1d1"/>
			<stop offset=".3" stop-color="#e3e3e3"/>
			<stop offset=".6" stop-color="#d2d2d2"/>
			<stop offset=".8" stop-color="#e6e6e6"/>
		</linearGradient>
		<linearGradient id="g3" x1="549.1" y1="130.2" x2="561.2" y2="130.2" gradientUnits="userSpaceOnUse">
			<stop offset=".1" stop-color="#e6e6e6"/>
			<stop offset=".4" stop-color="#d2d2d2"/>
			<stop offset=".6" stop-color="#e3e3e3"/>
			<stop offset=".8" stop-color="#d1d1d1"/>
		</linearGradient>
		<linearGradient id="g4" x1="549.1" y1="1011.3" x2="561.2" y2="1011.3" gradientUnits="userSpaceOnUse">
			<stop offset=".1" stop-color="#e6e6e6"/>
			<stop offset=".4" stop-color="#d2d2d2"/>
			<stop offset=".6" stop-color="#e3e3e3"/>
			<stop offset=".8" stop-color="#d1d1d1"/>
		</linearGradient>
		<linearGradient id="g5" x1="427.4" y1="-3.5" x2="427.4" y2="8.5" gradientUnits="userSpaceOnUse">
			<stop offset=".2" stop-color="#d1d1d1"/>
			<stop offset=".4" stop-color="#e3e3e3"/>
			<stop offset=".7" stop-color="#d2d2d2"/>
			<stop offset=".9" stop-color="#e6e6e6"/>
		</linearGradient>
		<linearGradient id="g6" x1="133" y1="1131.5" x2="133" y2="1143.6" gradientUnits="userSpaceOnUse">
			<stop offset=".1" stop-color="#e6e6e6"/>
			<stop offset=".4" stop-color="#d2d2d2"/>
			<stop offset=".6" stop-color="#e3e3e3"/>
			<stop offset=".8" stop-color="#d1d1d1"/>
		</linearGradient>
		<linearGradient id="g7" x1="43.9" y1="20.1" x2="511.6" y2="1105.8" gradientUnits="userSpaceOnUse">
			<stop offset="0" stop-color="#ffffff" stop-opacity=".2"/>
			<stop offset="1" stop-color="#ffffff" stop-opacity=".1"/>
		</linearGradient>
		<linearGradient id="g8" x1="0" y1="238" x2="3.5" y2="238" gradientUnits="userSpaceOnUse">
			<stop offset="0" stop-color="#000000" stop-opacity="0"/>
			<stop offset=".3" stop-color="#d0d0d0" stop-opacity=".4"/>
			<stop offset="1" stop-color="#000000" stop-opacity=".2"/>
		</linearGradient>
		<linearGradient id="g9" x1="0" y1="331.3" x2="3.5" y2="331.3" gradientUnits="userSpaceOnUse">
			<stop offset="0" stop-color="#000000" stop-opacity="0"/>
			<stop offset=".3" stop-color="#d0d0d0" stop-opacity=".4"/>
			<stop offset="1" stop-color="#000000" stop-opacity=".2"/>
		</linearGradient>
		<linearGradient id="g10" x1="557.6" y1="379.2" x2="561.2" y2="379.2" gradientUnits="userSpaceOnUse">
			<stop offset="0" stop-color="#000000" stop-opacity=".2"/>
			<stop offset=".6" stop-color="#d0d0d0" stop-opacity=".4"/>
			<stop offset="1" stop-color="#000000" stop-opacity="0"/>
		</linearGradient>
		<linearGradient id="g11" x1="0" y1="428.5" x2="3.5" y2="428.5" gradientUnits="userSpaceOnUse">
			<stop offset="0" stop-color="#000000" stop-opacity="0"/>
			<stop offset=".3" stop-color="#d0d0d0" stop-opacity=".4"/>
			<stop offset="1" stop-color="#000000" stop-opacity=".2"/>
		</linearGradient>
		<clipPath clipPathUnits="userSpaceOnUse" id="cp2">
			<path d="m3.55 136.21c0-47.68 0-71.52 9.28-89.73 8.16-16.02 21.18-29.04 37.2-37.2 18.21-9.28 42.05-9.28 89.73-9.28h281.64c47.68 0 71.52 0 89.73 9.28 16.02 8.16 29.05 21.18 37.21 37.2 9.28 18.21 9.28 42.05 9.28 89.73v868.35c0 47.68 0 71.52-9.28 89.73-8.16 16.02-21.19 29.04-37.21 37.2-18.21 9.28-42.05 9.28-89.73 9.28h-281.64c-47.68 0-71.52 0-89.73-9.28-16.02-8.16-29.04-21.18-37.2-37.2-9.28-18.21-9.28-42.05-9.28-89.73z"/>
		</clipPath>
		<linearGradient id="g12" x1="280.6" y1="0" x2="280.6" y2="1140.8" gradientUnits="userSpaceOnUse">
			<stop offset="0" stop-color="#ffffff" stop-opacity=".6"/>
			<stop offset="1" stop-color="#ffffff" stop-opacity=".3"/>
		</linearGradient>
		<linearGradient id="g13" x1="0" y1="130.2" x2="12.1" y2="130.2" gradientUnits="userSpaceOnUse">
			<stop offset=".3" stop-color="#8f8f8f"/>
			<stop offset=".5" stop-color="#525252"/>
			<stop offset=".8" stop-color="#141414"/>
		</linearGradient>
		<linearGradient id="g14" x1="0" y1="1011.3" x2="12.1" y2="1011.3" gradientUnits="userSpaceOnUse">
			<stop offset=".3" stop-color="#8f8f8f"/>
			<stop offset=".5" stop-color="#525252"/>
			<stop offset=".8" stop-color="#141414"/>
		</linearGradient>
		<linearGradient id="g15" x1="549.1" y1="130.2" x2="561.2" y2="130.2" gradientUnits="userSpaceOnUse">
			<stop offset=".1" stop-color="#141414"/>
			<stop offset=".5" stop-color="#525252"/>
			<stop offset=".7" stop-color="#8f8f8f"/>
		</linearGradient>
		<linearGradient id="g16" x1="549.1" y1="1011.3" x2="561.2" y2="1011.3" gradientUnits="userSpaceOnUse">
			<stop offset=".1" stop-color="#141414"/>
			<stop offset=".5" stop-color="#525252"/>
			<stop offset=".7" stop-color="#8f8f8f"/>
		</linearGradient>
		<linearGradient id="g17" x1="427.4" y1="-3.5" x2="427.4" y2="8.5" gradientUnits="userSpaceOnUse">
			<stop offset=".3" stop-color="#8f8f8f"/>
			<stop offset=".5" stop-color="#525252"/>
			<stop offset="1" stop-color="#141414"/>
		</linearGradient>
		<linearGradient id="g18" x1="133" y1="1131.5" x2="133" y2="1143.6" gradientUnits="userSpaceOnUse">
			<stop offset=".1" stop-color="#000000"/>
			<stop offset=".6" stop-color="#292929"/>
			<stop offset=".9" stop-color="#7a7a7a"/>
		</linearGradient>
		<linearGradient id="g19" x1="43.9" y1="20.1" x2="511.6" y2="1105.8" gradientUnits="userSpaceOnUse">
			<stop offset="0" stop-color="#ffffff" stop-opacity=".2"/>
			<stop offset="1" stop-color="#ffffff" stop-opacity=".1"/>
		</linearGradient>
		<linearGradient id="g20" x1="0" y1="238" x2="3.5" y2="238" gradientUnits="userSpaceOnUse">
			<stop offset="0" stop-color="#ffffff" stop-opacity=".1"/>
			<stop offset=".3" stop-color="#ffffff" stop-opacity=".2"/>
			<stop offset="1" stop-color="#ffffff" stop-opacity="0"/>
		</linearGradient>
		<linearGradient id="g21" x1="0" y1="331.3" x2="3.5" y2="331.3" gradientUnits="userSpaceOnUse">
			<stop offset="0" stop-color="#ffffff" stop-opacity=".1"/>
			<stop offset=".3" stop-color="#ffffff" stop-opacity=".2"/>
			<stop offset="1" stop-color="#ffffff" stop-opacity="0"/>
		</linearGradient>
		<linearGradient id="g22" x1="557.6" y1="379.2" x2="561.2" y2="379.2" gradientUnits="userSpaceOnUse">
			<stop offset="0" stop-color="#ffffff" stop-opacity="0"/>
			<stop offset=".6" stop-color="#ffffff" stop-opacity=".2"/>
			<stop offset="1" stop-color="#ffffff" stop-opacity=".1"/>
		</linearGradient>
		<linearGradient id="g23" x1="0" y1="428.5" x2="3.5" y2="428.5" gradientUnits="userSpaceOnUse">
			<stop offset="0" stop-color="#ffffff" stop-opacity=".1"/>
			<stop offset=".3" stop-color="#ffffff" stop-opacity=".2"/>
			<stop offset="1" stop-color="#ffffff" stop-opacity="0"/>
		</linearGradient>
		<clipPath clipPathUnits="userSpaceOnUse" id="cp3">
			<path d="m63.95 32.5c13.66-6.96 31.54-6.96 67.3-6.96h22.85c1.18 0 1.77 0 2.24 0.17 0.79 0.29 1.41 0.91 1.69 1.7 0.17 0.47 0.17 1.05 0.17 2.23 0 9.39 0 14.09 1.37 17.85 2.3 6.31 7.27 11.28 13.57 13.57 3.76 1.37 8.46 1.37 17.86 1.37h179.88c9.39 0 14.09 0 17.85-1.37 6.31-2.29 11.28-7.26 13.57-13.57 1.37-3.76 1.37-8.46 1.37-17.85 0-1.18 0-1.76 0.17-2.23 0.29-0.79 0.91-1.41 1.7-1.7 0.47-0.17 1.05-0.17 2.23-0.17h22.86c35.76 0 53.64 0 67.29 6.96 12.02 6.12 21.79 15.89 27.91 27.9 6.96 13.66 6.96 31.54 6.96 67.3v884.66c0 35.76 0 53.64-6.96 67.3-6.12 12.02-15.89 21.78-27.91 27.9-13.65 6.96-31.53 6.96-67.29 6.96h-299.38c-35.76 0-53.64 0-67.3-6.96-12.01-6.12-21.78-15.88-27.9-27.9-6.96-13.66-6.96-31.54-6.96-67.3v-884.66c0-35.76 0-53.64 6.96-67.3 6.12-12.01 15.89-21.78 27.9-27.9z"/>
		</clipPath>
		<filter x="-50%" y="-50%" width="200%" height="200%" id="f1"> <feGaussianBlur stdDeviation=".4"/> </filter>
		<linearGradient id="g24" x1="280.9" y1="34.1" x2="280.9" y2="44" gradientUnits="userSpaceOnUse">
			<stop offset="0" stop-color="#000000"/>
			<stop offset=".5" stop-color="#484848"/>
			<stop offset="1" stop-color="#000000"/>
		</linearGradient>
		<radialGradient id="g25" cx="331.7" cy="43.6" r="9.9" gradientUnits="userSpaceOnUse">
			<stop offset="0" stop-color="#242424"/>
			<stop offset="1" stop-color="#161616"/>
		</radialGradient>
		<radialGradient id="g26" cx="329.9" cy="39" r="9.9" gradientUnits="userSpaceOnUse">
			<stop offset=".5" stop-color="#000000" stop-opacity=".3"/>
			<stop offset=".6" stop-color="#000000" stop-opacity="0"/>
		</radialGradient>
		<linearGradient id="g27" x1="329.9" y1="34.1" x2="329.9" y2="44" gradientUnits="userSpaceOnUse">
			<stop offset="0" stop-color="#0b528d"/>
			<stop offset=".3" stop-color="#3625af"/>
			<stop offset=".5" stop-color="#070d17"/>
			<stop offset=".7" stop-color="#16618f"/>
			<stop offset="1" stop-color="#021762"/>
		</linearGradient>
		<radialGradient id="g28" cx="326" cy="38" r="5.4" gradientUnits="userSpaceOnUse">
			<stop offset="0" stop-color="#070d17"/>
			<stop offset="1" stop-color="#070d17" stop-opacity="0"/>
		</radialGradient>
		<radialGradient id="g29" cx="330.6" cy="39.7" r="3.7" gradientUnits="userSpaceOnUse">
			<stop offset=".1" stop-color="#070d17"/>
			<stop offset="1" stop-color="#070d17" stop-opacity="0"/>
		</radialGradient>
		<radialGradient id="g30" cx="331.3" cy="38" r="2.3" gradientUnits="userSpaceOnUse">
			<stop offset="0" stop-color="#6356d7"/>
			<stop offset="1" stop-color="#15368a" stop-opacity="0"/>
		</radialGradient>
		<radialGradient id="g31" cx="329.9" cy="39" r="5" gradientUnits="userSpaceOnUse">
			<stop offset=".8" stop-color="#000000" stop-opacity="0"/>
			<stop offset="1" stop-color="#000000" stop-opacity=".8"/>
		</radialGradient>
	</defs>
	<style>
		.s0 { fill: #0f657a } 
		.s1 { mix-blend-mode: multiply;fill: #ebebeb } 
		.s2 { mix-blend-mode: multiply;fill: url(#g1) } 
		.s3 { mix-blend-mode: multiply;fill: url(#g2) } 
		.s4 { mix-blend-mode: multiply;fill: url(#g3) } 
		.s5 { mix-blend-mode: multiply;fill: url(#g4) } 
		.s6 { mix-blend-mode: multiply;fill: url(#g5) } 
		.s7 { mix-blend-mode: multiply;fill: url(#g6) } 
		.s8 { mix-blend-mode: multiply;fill: #000000;stroke: url(#g7);stroke-width: .4 } 
		.s9 { mix-blend-mode: multiply;fill: url(#g8) } 
		.s10 { mix-blend-mode: multiply;fill: url(#g9) } 
		.s11 { mix-blend-mode: multiply;fill: url(#g10) } 
		.s12 { mix-blend-mode: multiply;fill: url(#g11) } 
		.s13 { mix-blend-mode: screen;fill: #050505 } 
		.s14 { mix-blend-mode: screen;fill: none;stroke: url(#g12);stroke-width: 1.4 } 
		.s15 { mix-blend-mode: screen;fill: url(#g13) } 
		.s16 { mix-blend-mode: screen;fill: url(#g14) } 
		.s17 { mix-blend-mode: screen;fill: url(#g15) } 
		.s18 { mix-blend-mode: screen;fill: url(#g16) } 
		.s19 { mix-blend-mode: screen;fill: url(#g17) } 
		.s20 { mix-blend-mode: screen;fill: url(#g18) } 
		.s21 { mix-blend-mode: screen;fill: #000000;stroke: url(#g19);stroke-width: .4 } 
		.s22 { mix-blend-mode: screen;fill: url(#g20) } 
		.s23 { mix-blend-mode: screen;fill: url(#g21) } 
		.s24 { mix-blend-mode: screen;fill: url(#g22) } 
		.s25 { mix-blend-mode: screen;fill: url(#g23) } 
		.s26 { fill: #161616 } 
		.s27 { filter: url(#f1);fill: none;stroke: #000000;stroke-opacity: .3;stroke-width: 1.4 } 
		.s28 { fill: none;stroke: url(#g24);stroke-width: .7 } 
		.s29 { fill: url(#g25) } 
		.s30 { fill: url(#g26) } 
		.s31 { fill: url(#g27) } 
		.s32 { fill: url(#g28) } 
		.s33 { fill: url(#g29) } 
		.s34 { fill: url(#g30) } 
		.s35 { fill: url(#g31) } 
	</style>
	<path id="Layer" class="s0" d="m3.5 136.2c0-47.7 0-71.5 9.3-89.7 8.2-16 21.2-29.1 37.2-37.2 18.2-9.3 42.1-9.3 89.8-9.3h281.6c47.7 0 71.5 0 89.7 9.3 16.1 8.1 29.1 21.2 37.2 37.2 9.3 18.2 9.3 42 9.3 89.7v182.3h2.1c0.8 0 1.5 0.7 1.5 1.5v120.6c0 0.7-0.7 1.4-1.5 1.4h-2.1v562.6c0 47.6 0 71.5-9.3 89.7-8.1 16-21.1 29-37.2 37.2-18.2 9.3-42 9.3-89.7 9.3h-281.6c-47.7 0-71.6 0-89.8-9.3-16-8.2-29-21.2-37.2-37.2-9.3-18.2-9.3-42.1-9.3-89.7v-535.7h-2.1c-0.8 0-1.4-0.6-1.4-1.4v-76.6c0-0.8 0.6-1.4 1.4-1.4h2.1v-17.8h-2.1c-0.8 0-1.4-0.6-1.4-1.4v-76.6c0-0.8 0.6-1.4 1.4-1.4h2.1v-33.4h-2.1c-0.8 0-1.4-0.6-1.4-1.4v-38.3c0-0.8 0.6-1.4 1.4-1.4h2.1z"/>
	<g id="Layer">
		<g id="Clip-Path" clip-path="url(#cp1)">
			<g id="Layer">
				<g id="Layer">
					<path id="Layer" class="s1" d="m3.5 136.2c0-47.7 0-71.5 9.3-89.7 8.2-16 21.2-29.1 37.2-37.2 18.2-9.3 42.1-9.3 89.8-9.3h281.6c47.7 0 71.5 0 89.7 9.3 16.1 8.1 29.1 21.2 37.2 37.2 9.3 18.2 9.3 42 9.3 89.7v868.4c0 47.6 0 71.5-9.3 89.7-8.1 16-21.1 29-37.2 37.2-18.2 9.3-42 9.3-89.7 9.3h-281.6c-47.7 0-71.6 0-89.8-9.3-16-8.2-29-21.2-37.2-37.2-9.3-18.2-9.3-42.1-9.3-89.7z"/>
				</g>
				<path id="Layer" class="s2" d="m0 124.9h12.1v9.9h-12.1z"/>
				<path id="Layer" class="s3" d="m0 1006h12.1v9.9h-12.1z"/>
				<path id="Layer" class="s4" d="m549.1 124.9h12.1v9.9h-12.1z"/>
				<path id="Layer" class="s5" d="m549.1 1006h12.1v9.9h-12.1z"/>
				<path id="Layer" class="s6" d="m432.8-3.5v12h-10v-12z"/>
				<path id="Layer" class="s7" d="m138.3 1131.5v12.1h-9.9v-12.1z"/>
			</g>
		</g>
		<path id="Layer" class="s8" d="m136.4 5.9h288.4c22.3 0 38.9 0 52.2 1 13.2 1.1 23 3.3 31.5 7.6 14.9 7.6 27 19.7 34.6 34.6 4.3 8.5 6.5 18.3 7.6 31.5 1.1 13.3 1.1 30 1.1 52.2v875.2c0 22.2 0 38.9-1.1 52.1-1.1 13.3-3.3 23.1-7.6 31.5-7.6 14.9-19.7 27.1-34.6 34.7-8.5 4.3-18.3 6.5-31.5 7.5-13.3 1.1-29.9 1.1-52.2 1.1h-288.4c-22.3 0-39 0-52.2-1.1-13.3-1-23-3.2-31.5-7.5-14.9-7.6-27.1-19.8-34.7-34.7-4.3-8.4-6.4-18.2-7.5-31.5-1.1-13.2-1.1-29.9-1.1-52.1v-875.2c0-22.2 0-38.9 1.1-52.2 1.1-13.2 3.2-23 7.5-31.5 7.6-14.9 19.8-27 34.7-34.6 8.5-4.3 18.2-6.5 31.5-7.6 13.2-1 29.9-1 52.2-1z"/>
		<g id="Layer">
			<path id="Layer" class="s9" d="m0 219.2c0-0.8 0.6-1.4 1.4-1.4h2.1v41.1h-2.1c-0.8 0-1.4-0.6-1.4-1.4z"/>
		</g>
		<g id="Layer">
			<path id="Layer" class="s10" d="m0 293.7c0-0.8 0.6-1.4 1.4-1.4h2.1v79.4h-2.1c-0.8 0-1.4-0.6-1.4-1.4z"/>
		</g>
		<g id="Layer">
			<path id="Layer" class="s11" d="m557.6 318.5h2.1c0.8 0 1.5 0.7 1.5 1.5v120.6c0 0.7-0.7 1.4-1.5 1.4h-2.1z"/>
		</g>
		<g id="Layer">
			<path id="Layer" class="s12" d="m0 390.9c0-0.8 0.6-1.4 1.4-1.4h2.1v79.4h-2.1c-0.8 0-1.4-0.6-1.4-1.4z"/>
		</g>
	</g>
	<g id="Layer">
		<g id="Clip-Path" clip-path="url(#cp2)">
			<g id="Layer">
				<g id="Layer">
					<path id="Layer" class="s13" d="m3.5 136.2c0-47.7 0-71.5 9.3-89.7 8.2-16 21.2-29.1 37.2-37.2 18.2-9.3 42.1-9.3 89.8-9.3h281.6c47.7 0 71.5 0 89.7 9.3 16.1 8.1 29.1 21.2 37.2 37.2 9.3 18.2 9.3 42 9.3 89.7v868.4c0 47.6 0 71.5-9.3 89.7-8.1 16-21.1 29-37.2 37.2-18.2 9.3-42 9.3-89.7 9.3h-281.6c-47.7 0-71.6 0-89.8-9.3-16-8.2-29-21.2-37.2-37.2-9.3-18.2-9.3-42.1-9.3-89.7z"/>
				</g>
				<path id="Layer" class="s14" d="m139.8 0.7h281.6c23.9 0 41.7 0 55.9 1.2 14.1 1.1 24.5 3.4 33.5 8 15.9 8.1 28.8 21 36.9 36.9 4.6 9 6.9 19.4 8 33.6 1.2 14.1 1.2 32 1.2 55.8v868.4c0 23.8 0 41.7-1.2 55.8-1.1 14.2-3.4 24.6-8 33.6-8.1 15.8-21 28.8-36.9 36.9-9 4.5-19.4 6.9-33.5 8-14.2 1.2-32 1.2-55.9 1.2h-281.6c-23.9 0-41.7 0-55.9-1.2-14.2-1.1-24.6-3.5-33.5-8-15.9-8.1-28.8-21.1-36.9-36.9-4.6-9-6.9-19.4-8.1-33.6-1.1-14.1-1.1-32-1.1-55.8v-868.4c0-23.8 0-41.7 1.1-55.8 1.2-14.2 3.5-24.6 8.1-33.6 8.1-15.9 21-28.8 36.9-36.9 8.9-4.6 19.3-6.9 33.5-8 14.2-1.2 32-1.2 55.9-1.2z"/>
				<path id="Layer" class="s15" d="m0 124.9h12.1v9.9h-12.1z"/>
				<path id="Layer" class="s16" d="m0 1006h12.1v9.9h-12.1z"/>
				<path id="Layer" class="s17" d="m549.1 124.9h12.1v9.9h-12.1z"/>
				<path id="Layer" class="s18" d="m549.1 1006h12.1v9.9h-12.1z"/>
				<path id="Layer" class="s19" d="m432.8-3.5v12h-10v-12z"/>
				<path id="Layer" class="s20" d="m138.3 1131.5v12.1h-9.9v-12.1z"/>
			</g>
		</g>
		<path id="Layer" class="s21" d="m136.4 5.9h288.4c22.3 0 38.9 0 52.2 1 13.2 1.1 23 3.3 31.5 7.6 14.9 7.6 27 19.7 34.6 34.6 4.3 8.5 6.5 18.3 7.6 31.5 1.1 13.3 1.1 30 1.1 52.2v875.2c0 22.2 0 38.9-1.1 52.1-1.1 13.3-3.3 23.1-7.6 31.5-7.6 14.9-19.7 27.1-34.6 34.7-8.5 4.3-18.3 6.5-31.5 7.5-13.3 1.1-29.9 1.1-52.2 1.1h-288.4c-22.3 0-39 0-52.2-1.1-13.3-1-23-3.2-31.5-7.5-14.9-7.6-27.1-19.8-34.7-34.7-4.3-8.4-6.4-18.2-7.5-31.5-1.1-13.2-1.1-29.9-1.1-52.1v-875.2c0-22.2 0-38.9 1.1-52.2 1.1-13.2 3.2-23 7.5-31.5 7.6-14.9 19.8-27 34.7-34.6 8.5-4.3 18.2-6.5 31.5-7.6 13.2-1 29.9-1 52.2-1z"/>
		<g id="Layer">
			<path id="Layer" class="s22" d="m0 219.2c0-0.8 0.6-1.4 1.4-1.4h2.1v41.1h-2.1c-0.8 0-1.4-0.6-1.4-1.4z"/>
		</g>
		<g id="Layer">
			<path id="Layer" class="s23" d="m0 293.7c0-0.8 0.6-1.4 1.4-1.4h2.1v79.4h-2.1c-0.8 0-1.4-0.6-1.4-1.4z"/>
		</g>
		<g id="Layer">
			<path id="Layer" class="s24" d="m557.6 318.5h2.1c0.8 0 1.5 0.7 1.5 1.5v120.6c0 0.7-0.7 1.4-1.5 1.4h-2.1z"/>
		</g>
		<g id="Layer">
			<path id="Layer" class="s25" d="m0 390.9c0-0.8 0.6-1.4 1.4-1.4h2.1v79.4h-2.1c-0.8 0-1.4-0.6-1.4-1.4z"/>
		</g>
	</g>
	<g id="Clip-Path" clip-path="url(#cp3)">
		<g id="Layer">
			<path id="Layer" d="m29.1 24.8h504.4v1090.4h-504.4z"/>
		</g>
	</g>
	<g id="Layer">
		<path id="Layer" class="s26" d="m253.3 39c0-2.7 2.2-4.9 4.9-4.9h45.4c2.8 0 5 2.2 5 4.9 0 2.8-2.2 5-5 5h-45.4c-2.7 0-4.9-2.2-4.9-5z"/>
	</g>
	<g id="Layer">
		<path id="Layer" class="s27" d="m258.2 34.8h45.4c2.4 0 4.3 1.9 4.3 4.2 0 2.4-1.9 4.3-4.3 4.3h-45.4c-2.3 0-4.2-1.9-4.2-4.3 0-2.3 1.9-4.2 4.2-4.2z"/>
	</g>
	<path id="Layer" class="s28" d="m258.2 34.4h45.4c2.6 0 4.7 2.1 4.7 4.6 0 2.6-2.1 4.6-4.7 4.6h-45.4c-2.5 0-4.6-2-4.6-4.6 0-2.5 2.1-4.6 4.6-4.6z"/>
	<path id="Layer" class="s29" d="m320 39c0-5.5 4.4-9.9 9.9-9.9 5.5 0 9.9 4.4 9.9 9.9 0 5.5-4.4 10-9.9 10-5.5 0-9.9-4.5-9.9-10z"/>
	<path id="Layer" class="s30" d="m320 39c0-5.5 4.4-9.9 9.9-9.9 5.5 0 9.9 4.4 9.9 9.9 0 5.5-4.4 10-9.9 10-5.5 0-9.9-4.5-9.9-10z"/>
	<path id="Layer" class="s31" d="m329.9 44c-2.8 0-5-2.2-5-5 0-2.7 2.2-4.9 5-4.9 2.7 0 5 2.2 5 4.9 0 2.8-2.3 5-5 5z"/>
	<path id="Layer" class="s32" d="m329.9 44c-2.8 0-5-2.2-5-5 0-2.7 2.2-4.9 5-4.9 2.7 0 5 2.2 5 4.9 0 2.8-2.3 5-5 5z"/>
	<path id="Layer" class="s33" d="m329.9 44c-2.8 0-5-2.2-5-5 0-2.7 2.2-4.9 5-4.9 2.7 0 5 2.2 5 4.9 0 2.8-2.3 5-5 5z"/>
	<path id="Layer" class="s34" d="m329.9 44c-2.8 0-5-2.2-5-5 0-2.7 2.2-4.9 5-4.9 2.7 0 5 2.2 5 4.9 0 2.8-2.3 5-5 5z"/>
	<path id="Layer" class="s35" d="m329.9 44c-2.8 0-5-2.2-5-5 0-2.7 2.2-4.9 5-4.9 2.7 0 5 2.2 5 4.9 0 2.8-2.3 5-5 5z"/>
</svg>