<svg version="1.2" xmlns="http://www.w3.org/2000/svg" viewBox="0 0 78 78" width="78" height="78">
	<title>PiggyBankPictogram-svg</title>
	<style>
		.s0 { fill: #2477ab } 
		.s1 { fill: #e94d00 } 
	</style>
	<g id="Layer">
		<path id="Layer" fill-rule="evenodd" class="s0" d="m54.6 38c0 1.8-1.4 3.2-3.1 3.2-1.8 0-3.2-1.4-3.2-3.2 0-1.7 1.4-3.1 3.2-3.1 1.7 0 3.1 1.4 3.1 3.1z"/>
		<path id="Layer" fill-rule="evenodd" class="s0" d="m68.1 51.2l-8 4.1c-0.4 0.2-0.6 0.6-0.6 1l-0.6 11.5c-0.1 0.4-0.2 0.8-0.5 1.1q-0.1 0.2-0.2 0.3c-0.5 0.4-1.1 0.6-1.7 0.5-0.7-0.1-1.2-0.6-1.5-1.2l-2.8-6.7c-0.1-0.4-0.4-0.6-0.7-0.7-0.4-0.2-0.7-0.1-1 0-0.2 0.1-14.2 7.1-28.3 0.2-0.3-0.2-0.7-0.2-1 0-0.3 0.1-0.6 0.3-0.7 0.7l-2.8 6.9c-0.2 0.5-0.5 0.8-1 1-0.6 0.2-1.2 0.2-1.8-0.2-0.5-0.3-0.8-0.8-0.8-1.5l-0.7-13.1q0-0.4-0.3-0.7c-0.4-0.6-9.6-13 4.1-25.5h0.2c1.3 1.1 2.8 2.1 4.4 2.7q-1.7 1-3.5 2.4c-0.5 0.4-0.6 1.2-0.2 1.7 0.2 0.3 0.6 0.5 1 0.5q0.4 0 0.7-0.3c10.3-7.9 20.9-6.1 21.1-6.1 0.7 0.2 1.3-0.3 1.4-1 0.2-0.6-0.3-1.3-1-1.4-0.1-0.1-1.6-0.3-3.8-0.3 1-1.3 1.8-2.8 2.3-4.4l2.8 0.8c1.8 0.5 3.7 0.2 5.1-0.9 1.2-0.9 3.5-2.5 5.1-5.1 0.9 1.5 2 4.3 1.1 8.4q-0.3 1.5 1 3.1l6.4 7.8q0.7 0.9 1.7 1.5l5.1 3.1zm5.5-9.4v11.2c0 0.5-0.2 0.9-0.7 1.1l-8 4.2-0.5 10.7c-0.1 1-0.5 1.9-1.1 2.7q-0.2 0.2-0.4 0.4c-1 1-5 0.5-6.5 0.2q0 0 0 0-0.2 0-0.4-0.1c-1.5-0.3-2.7-1.2-3.3-2.6l-1.5-3.7c-4.9 1.6-14.3 3.7-24.4-0.1q-0.8-0.2-1.5-0.5l-2.3 5.6c-0.4 1.1-1.3 2-2.4 2.4q-0.8 0.3-1.7 0.3c-0.5 0-2.6-0.6-4-1.1q-0.6-0.2-1.1-0.5-0.1 0-0.2-0.1c-1.2-0.7-2-2-2-3.4l-0.7-12.9c-1.2-1.8-6.4-10.4-1.7-20.3-1.4-0.8-4.3-2.7-5.1-4.9-0.3-0.6 0.1-1.3 0.7-1.6 0.7-0.2 1.4 0.1 1.6 0.8 0.5 1.1 2.5 2.6 4 3.5 1.3-2 3-4 5.3-6-1.7-2.3-2.8-5.2-2.8-8.3 0-7.5 6.2-13.7 13.7-13.7 7.6 0 13.8 6.2 13.8 13.7q0 0.8-0.1 1.5l3 0.9c1 0.3 2.1 0.1 3-0.5 1.4-1 3.9-2.9 5.1-5.9 0.2-0.3 0.5-0.6 0.9-0.7q0.2-0.1 0.4 0c0.3-0.1 0.7 0 0.9 0.3 0.2 0.1 7.4 5.1 5.7 13.1 0 0.2 0.1 0.5 0.5 1.1l6.4 7.7q0.5 0.6 1.1 1l5.7 3.5c0.4 0.2 0.6 0.6 0.6 1zm-47.5-12.3c5.9 0 10.7-4.8 10.7-10.7 0-5.9-4.8-10.7-10.7-10.7-5.9 0-10.7 4.8-10.7 10.7 0 5.9 4.8 10.7 10.7 10.7z"/>
		<path id="Layer" fill-rule="evenodd" class="s1" d="m30.4 19.9q0 1.6-1 2.7-0.8 1-2.4 1.3v1.7h-1.6v-1.6q-1.4-0.2-2.4-1.2-0.9-0.9-1.2-2.6l2.3-0.3q0.2 0.7 0.5 1.2 0.4 0.5 0.8 0.7v-3.6q-1.6-0.5-2.4-1.5-0.8-1-0.8-2.4 0-1.4 0.9-2.4 0.9-1 2.3-1.1v-0.9h1.6v0.9q1.2 0.2 2 0.9 0.8 0.8 1 2.1l-2.2 0.3q-0.1-0.9-0.8-1.3v3.4q1.9 0.6 2.6 1.4 0.8 0.9 0.8 2.3zm-5-4.3v-2.9q-0.4 0.2-0.7 0.6-0.3 0.4-0.3 0.9 0 0.5 0.3 0.9 0.2 0.3 0.7 0.5zm2.9 4.6q0-0.5-0.4-1-0.3-0.3-0.9-0.5v3.2q0.5-0.1 0.8-0.5 0.5-0.5 0.5-1.2z"/>
	</g>
</svg>