<svg version="1.2" xmlns="http://www.w3.org/2000/svg" viewBox="0 0 60 60" width="60" height="60">
	<title>car-loan-icon-svg</title>
	<style>
		.s0 { fill: #2477ab } 
		.s1 { fill: #e94d00 } 
	</style>
	<g id="Layer">
		<path id="Layer" fill-rule="evenodd" class="s0" d="m57.1 40.8l-0.4 1.1c-0.1 0.4-0.5 0.6-0.9 0.6h-4.7c-0.6 2.6-2.8 4.5-5.4 4.5-2.4 0-5.6-1.7-6.7-4.1 0-0.1-0.1-0.2-0.2-0.4h-19.3c-0.6 2.6-2.7 4.5-5.4 4.5-2.3 0-5-1.5-6.3-3.6-0.3-0.2-0.4-0.5-0.6-0.9h-2.4c-0.3 0-1.4-0.1-2.1-0.4-0.3-0.2-0.7-0.4-0.7-1v-5.8c0-1.9 0.7-3.9 1.8-5.2 1.2-1.6 2.7-2.2 3.3-2.5 0.5-0.1 2.1-0.5 4.9-1 1-0.3 1.9-0.7 2.7-1.3 1.2-1.1 3.1-2.5 5.4-3.8 5.3-3.2 8.2-4.5 14.1-4.5 2 0 4.3-0.1 6.8 0.2 1.7 0.1 3.3 0.5 4.8 1 5.7 1.8 10.6 7 11.7 11.5 0.8 3.8 0.7 7.7-0.4 11.1zm-45 3c2 0 3.7-1.7 3.7-3.8 0-1.3-0.7-4.8-1.8-5.5 2.1 0.7 3.8 2.9 3.8 5.5v0.1h21.1v-0.1c0-3.2 2.4-5.8 5.5-5.8 3.1 0 5.6 2.6 5.6 5.8v0.1h4c0 0 0-0.2 0.1-0.2 1-2.7 1.2-7.3 0.5-10.1-1.5-6.1-6.3-9.9-12.9-10.6-2.4-0.2-6.6-0.2-6.7-0.2-5.4-0.1-8.9 1.3-13.9 4.2-2 1.3-3.9 2.6-5 3.6-1 0.9-2.3 1.5-3.5 1.7-2.6 0.5-4.1 0.8-4.8 1.1-2.3 0.9-3.8 3.2-3.8 5.8v4.7h2.7v-0.1c0-3.2 2.4-5.8 5.5-5.8 0.6 0 1.2 2 1.7 2.4q-0.8-0.4-1.8-0.4c-2 0-3.6 1.7-3.6 3.8 0 2.1 1.7 3.8 3.6 3.8zm1.8-7.2q0 0.1 0.1 0.1-0.1 0-0.1-0.1zm34.1 3.4c0-2.1-1.6-3.8-3.6-3.8-2 0-3.6 1.7-3.6 3.8 0 2.1 1.6 3.8 3.6 3.8 2 0 3.6-1.7 3.6-3.8z"/>
		<path id="Layer" fill-rule="evenodd" class="s1" d="m32.4 21.5l0.5 7.9-19.4 1.6c-0.2 0-0.9-0.2 0-1l0.4-0.4c1.2-1 2.9-2.3 4.7-3.5 5.1-3.2 8.6-4.7 13.8-4.6zm6.9 0.2c4.6 0.5 8.4 2.7 10.7 6.3l-14.6 1.2-0.4-7.7c2.2 0 3.7 0.1 4.3 0.2z"/>
	</g>
</svg>